<mxfile host="app.diagrams.net" modified="2024-07-03T19:21:07.999Z" agent="Mozilla/5.0 (Windows NT 10.0; Win64; x64) AppleWebKit/537.36 (KHTML, like Gecko) Chrome/123.0.0.0 Safari/537.36 OPR/109.0.0.0" etag="_3fqX2DyD13vIxmYg8fn" version="24.6.4" type="device">
  <diagram name="PÃ¡gina-1" id="kTULdreiGxjbtmzYMMeo">
    <mxGraphModel dx="662" dy="384" grid="1" gridSize="10" guides="1" tooltips="1" connect="1" arrows="1" fold="1" page="1" pageScale="1" pageWidth="827" pageHeight="1169" math="0" shadow="0">
      <root>
        <mxCell id="0" />
        <mxCell id="1" parent="0" />
        <mxCell id="YwI35glb4WTkXIQjEgCE-1" value="Entidades&lt;div&gt;&lt;br&gt;&lt;/div&gt;&lt;div&gt;Instructor&lt;/div&gt;&lt;div&gt;guia&lt;/div&gt;&lt;div&gt;momentos&lt;/div&gt;&lt;div&gt;&lt;br&gt;&lt;/div&gt;" style="rounded=0;whiteSpace=wrap;html=1;" vertex="1" parent="1">
          <mxGeometry x="150" y="200" width="80" height="110" as="geometry" />
        </mxCell>
      </root>
    </mxGraphModel>
  </diagram>
</mxfile>
